<?xml version="1.0" encoding="UTF-8" standalone="no"?>
<svg
   xmlns:dc="http://purl.org/dc/elements/1.1/"
   xmlns:cc="http://creativecommons.org/ns#"
   xmlns:rdf="http://www.w3.org/1999/02/22-rdf-syntax-ns#"
   xmlns:svg="http://www.w3.org/2000/svg"
   xmlns="http://www.w3.org/2000/svg"
   xmlns:sodipodi="http://sodipodi.sourceforge.net/DTD/sodipodi-0.dtd"
   xmlns:inkscape="http://www.inkscape.org/namespaces/inkscape"
   inkscape:version="1.0 (4035a4fb49, 2020-05-01)"
   sodipodi:docname="facebook.svg"
   id="svg4"
   version="1.1"
   viewBox="0 0 448 512"
   role="img"
   class="svg-inline--fa fa-facebook-square fa-w-14"
   data-icon="facebook-square"
   data-prefix="fab"
   focusable="false"
   aria-hidden="true">
  <metadata
     id="metadata10">
    <rdf:RDF>
      <cc:Work
         rdf:about="">
        <dc:format>image/svg+xml</dc:format>
        <dc:type
           rdf:resource="http://purl.org/dc/dcmitype/StillImage" />
      </cc:Work>
    </rdf:RDF>
  </metadata>
  <defs
     id="defs8" />
  <sodipodi:namedview
     inkscape:current-layer="svg4"
     inkscape:window-maximized="1"
     inkscape:window-y="0"
     inkscape:window-x="0"
     inkscape:cy="336.27371"
     inkscape:cx="224"
     inkscape:zoom="1.9749272"
     showgrid="false"
     id="namedview6"
     inkscape:window-height="871"
     inkscape:window-width="1600"
     inkscape:pageshadow="2"
     inkscape:pageopacity="0"
     guidetolerance="10"
     gridtolerance="10"
     objecttolerance="10"
     borderopacity="1"
     bordercolor="#666666"
     pagecolor="#ffffff"
     inkscape:document-rotation="0" />
  <path
     style="fill:#ffffff"
     id="path2"
     d="M 400.31649,19.142148 H 48.316485 a 48,48 0 0 0 -47.99999943,48 V 419.14215 a 48,48 0 0 0 47.99999943,48 H 185.56649 v -152.31 h -63 v -71.69 h 63 v -54.64 c 0,-62.15 37,-96.480002 93.67,-96.480002 27.14,0 55.52,4.84 55.52,4.84 v 61.000002 h -31.27 c -30.81,0 -40.42,19.12 -40.42,38.73 v 46.55 h 68.78 l -11,71.69 h -57.78 v 152.31 h 137.25 a 48,48 0 0 0 48,-48 V 67.142148 a 48,48 0 0 0 -48,-48 z"
     fill="currentColor" />
</svg>
